<svg id="visual" xmlns="http://www.w3.org/2000/svg" viewBox="0 0 1220 440.16"><defs><style>.cls-1,.cls-2,.cls-3{fill:none;}.cls-1{stroke:#9aafac;stroke-width:16px;}.cls-2{stroke:#7ab3b0;stroke-width:12px;}.cls-3{stroke:#81a191;stroke-width:6px;}.cls-4{fill:#acc1be;}</style></defs><title>Монтажная область 1</title><path class="cls-1" d="M1137.6,216.83c-4.95,14.76-21.19,25.93-36.88,25.93s-30.84-11.24-34.51-24.7,4.13-29.33,16.63-38.46,29.8-11.69,41.58-3.78S1142.55,202.08,1137.6,216.83Z"/><path class="cls-2" d="M490.77-9.49c-.55,18.81-13.67,38.37-30.43,42.7s-37.22-6.67-48-23.63-12-39.85-1.21-53.19,33.61-17,51-9.82S491.39-28.27,490.77-9.49Z"/><path class="cls-3" d="M958.83,60.23c-1.7-4.75.72-10.67,4.89-13.88a13,13,0,0,1,14.48-1c4.48,2.69,7.46,8.56,6.27,13.54s-6.79,9.14-12.52,9.42S960.52,65,958.83,60.23Z"/><circle class="cls-4" cy="272.76" r="167.4"/></svg>